<svg data-v-fde0c5aa="" xmlns="http://www.w3.org/2000/svg" viewBox="0 0 300 300" class="font"><!----><defs data-v-fde0c5aa=""><!----></defs><rect data-v-fde0c5aa="" fill="#E1EAE7" x="0" y="0" width="300px" height="300px" class="logo-background-square"></rect><defs data-v-fde0c5aa=""><linearGradient data-v-fde0c5aa="" gradientTransform="rotate(25)" id="b676faa1-dc8e-4dac-a2bc-f0e49fa2589a" x1="0%" y1="0%" x2="100%" y2="0%"><stop data-v-fde0c5aa="" offset="0%" stop-color="#041804" stop-opacity="1"></stop><stop data-v-fde0c5aa="" offset="100%" stop-opacity="1"></stop></linearGradient></defs><g data-v-fde0c5aa="" id="a3329d8c-66bf-439d-875a-c2985029db18" fill="url(#b676faa1-dc8e-4dac-a2bc-f0e49fa2589a)" transform="matrix(2.4376730918884277,0,0,2.4376730918884277,36.34349030470916,125.12354472997775)"><path d="M1.50 4.36L1.50 13.52L2.73 13.52L2.73 9.94C3.21 10.16 4.01 10.39 4.95 10.39C6.84 10.39 8.34 9.06 8.34 7.45C8.34 5.56 6.73 4.36 5.15 4.36ZM4.91 9.23C4.09 9.23 3.23 9.02 2.73 8.82L2.73 5.52L4.81 5.52C5.99 5.52 7.08 6.29 7.08 7.45C7.08 8.48 6.29 9.23 4.91 9.23ZM16.15 9.87C16.15 8.00 15.11 6.55 13.00 6.55C11.07 6.55 9.71 8.20 9.71 10.14C9.71 12.09 11.20 13.73 13.28 13.73C14.34 13.73 15.05 13.26 15.33 12.99L15.33 11.85C14.88 12.18 14.26 12.63 13.28 12.63C11.96 12.63 11.06 11.69 10.90 10.54L16.15 10.54ZM10.92 9.58C11.12 8.50 11.88 7.64 13.00 7.64C13.96 7.64 14.90 8.26 15.04 9.58ZM19.88 6.69L19.88 4.72L19.36 4.72C18.91 6.07 18.33 7.01 17.45 7.41L17.45 7.74L18.76 7.74L18.76 11.80C18.76 12.96 19.36 13.73 20.52 13.73C21.21 13.73 21.56 13.54 21.93 13.25L21.93 12.33C21.66 12.50 21.31 12.66 20.77 12.66C20.17 12.66 19.88 12.32 19.88 11.74L19.88 7.74L21.88 7.74L21.88 6.69ZM29.87 9.87C29.87 8.00 28.83 6.55 26.73 6.55C24.80 6.55 23.43 8.20 23.43 10.14C23.43 12.09 24.92 13.73 27.00 13.73C28.07 13.73 28.78 13.26 29.05 12.99L29.05 11.85C28.60 12.18 27.99 12.63 27.00 12.63C25.69 12.63 24.79 11.69 24.62 10.54L29.87 10.54ZM24.65 9.58C24.84 8.50 25.61 7.64 26.73 7.64C27.69 7.64 28.63 8.26 28.77 9.58ZM34.95 6.55C34.17 6.55 33.36 7.15 32.84 8.05L32.84 6.69L31.72 6.69L31.72 13.52L32.84 13.52L32.84 9.39C33.35 8.48 33.85 7.72 34.78 7.72C35.14 7.72 35.49 7.86 35.78 8.08L35.78 6.74C35.53 6.62 35.26 6.55 34.95 6.55ZM42.89 12.36L42.89 4.36L41.66 4.36L41.66 13.52L47.93 13.52L47.93 12.36ZM55.60 6.69L54.44 6.69L54.44 10.73C54.44 11.92 53.62 12.56 52.71 12.56C51.79 12.56 50.97 11.92 50.97 10.73L50.97 6.69L49.81 6.69L49.81 10.73C49.81 12.54 51.06 13.66 52.71 13.66C54.35 13.66 55.60 12.54 55.60 10.73ZM58.82 5.26C59.34 5.26 59.75 4.81 59.75 4.33C59.75 3.84 59.34 3.40 58.82 3.40C58.28 3.40 57.89 3.84 57.89 4.33C57.89 4.81 58.28 5.26 58.82 5.26ZM59.51 6.69L57.31 6.69L57.31 7.74L58.39 7.74L58.39 13.52L59.51 13.52ZM63.82 6.69L63.82 4.72L63.30 4.72C62.85 6.07 62.28 7.01 61.39 7.41L61.39 7.74L62.70 7.74L62.70 11.80C62.70 12.96 63.30 13.73 64.46 13.73C65.15 13.73 65.50 13.54 65.87 13.25L65.87 12.33C65.60 12.50 65.26 12.66 64.71 12.66C64.11 12.66 63.82 12.32 63.82 11.74L63.82 7.74L65.82 7.74L65.82 6.69ZM68.76 5.26C69.28 5.26 69.69 4.81 69.69 4.33C69.69 3.84 69.28 3.40 68.76 3.40C68.22 3.40 67.83 3.84 67.83 4.33C67.83 4.81 68.22 5.26 68.76 5.26ZM69.48 6.69L67.28 6.69L67.28 7.74L68.36 7.74L68.36 13.66C68.36 14.78 67.83 15.42 66.62 16.00L67.13 17.01C68.56 16.42 69.48 15.34 69.48 13.49ZM77.77 9.87C77.77 8.00 76.73 6.55 74.62 6.55C72.69 6.55 71.33 8.20 71.33 10.14C71.33 12.09 72.82 13.73 74.89 13.73C75.96 13.73 76.67 13.26 76.95 12.99L76.95 11.85C76.49 12.18 75.88 12.63 74.89 12.63C73.58 12.63 72.68 11.69 72.52 10.54L77.77 10.54ZM72.54 9.58C72.73 8.50 73.50 7.64 74.62 7.64C75.58 7.64 76.52 8.26 76.66 9.58ZM82.96 6.55C82.03 6.55 81.16 7.23 80.73 7.77L80.73 6.69L79.61 6.69L79.61 13.52L80.73 13.52L80.73 8.98C81.28 8.27 82.04 7.64 82.77 7.64C83.85 7.64 84.36 8.29 84.36 9.46L84.37 13.52L85.49 13.52L85.49 9.35C85.49 7.46 84.36 6.55 82.96 6.55ZM89.65 6.55C88.18 6.55 87.24 7.41 87.24 8.57C87.24 9.35 87.49 9.98 88.55 10.38L89.56 10.75C90.21 10.98 90.55 11.20 90.55 11.63C90.55 12.21 90.02 12.63 89.15 12.63C88.47 12.63 87.51 12.21 87.13 11.92L87.13 13.13C87.45 13.36 88.43 13.73 89.24 13.73C90.70 13.73 91.75 12.80 91.75 11.63C91.75 10.86 91.31 10.25 90.43 9.94L89.28 9.53C88.65 9.31 88.44 8.91 88.44 8.57C88.44 8.13 88.87 7.64 89.73 7.64C90.41 7.64 91.14 7.98 91.52 8.27L91.52 7.07C91.21 6.84 90.45 6.55 89.65 6.55Z"></path></g><!----><!----></svg>