<svg data-v-423bf9ae="" xmlns="http://www.w3.org/2000/svg" viewBox="0 0 625 90" class="iconLeftSlogan"><!----><!----><!----><g data-v-423bf9ae="" id="e91d10df-b5e4-46ce-b3b7-89381c97fcda" fill="white" transform="matrix(5.244754791259766,0,0,5.244754791259766,191.4592742919922,-11.90559196472168)"><path d="M2.10 2.97L3.92 2.97C5.43 2.97 6.26 3.86 6.26 5.53C6.26 7.35 5.43 8.33 3.92 8.33L2.10 8.33ZM0.94 2.51L0.94 11.37L2.10 11.37L2.10 8.79L4.16 8.79C6.15 8.79 7.46 7.49 7.46 5.53C7.46 3.71 6.15 2.51 4.16 2.51ZM9.65 7.41C9.79 5.96 10.33 5.18 11.52 5.18C12.67 5.18 13.36 5.94 13.36 7.38ZM9.60 7.87L14.53 7.95L14.53 7.42C14.53 5.80 13.36 4.72 11.61 4.72C9.67 4.72 8.39 6.06 8.39 8.08C8.39 10.12 9.70 11.48 11.68 11.48C12.80 11.48 13.99 10.96 14.36 10.78L14.13 10.15L12.94 10.70C12.63 10.84 12.12 11.02 11.79 11.02C10.37 11.02 9.60 9.97 9.60 8.04ZM16.20 5.53L16.20 9.86C16.20 10.84 16.91 11.48 18.00 11.48C18.21 11.48 18.83 11.38 19.35 11.20L19.17 10.77C18.98 10.82 18.70 10.91 18.55 10.91C17.65 10.91 17.25 10.61 17.25 9.63C17.25 9.39 17.36 8.12 17.36 7.52L17.36 5.53L19.46 5.53L19.46 4.96C19.21 4.96 18.55 5.07 17.36 5.07L17.36 3.32L16.20 3.78L16.20 5.07L15.04 5.07L15.04 5.53ZM21.42 7.41C21.56 5.96 22.11 5.18 23.30 5.18C24.44 5.18 25.13 5.94 25.13 7.38ZM21.38 7.87L26.31 7.95L26.31 7.42C26.31 5.80 25.13 4.72 23.38 4.72C21.45 4.72 20.16 6.06 20.16 8.08C20.16 10.12 21.48 11.48 23.45 11.48C24.57 11.48 25.76 10.96 26.14 10.78L25.90 10.15L24.71 10.70C24.40 10.84 23.90 11.02 23.56 11.02C22.15 11.02 21.38 9.97 21.38 8.04ZM31.14 5.88L31.25 4.62C30.42 4.62 30.07 5.04 29.44 5.67L28.91 6.22L28.55 4.77L27.75 4.83L27.75 11.37L28.91 11.37L28.91 6.87L29.51 6.27C29.86 5.92 30.35 5.88 30.80 5.88ZM37.07 2.51L37.07 11.37L42.67 11.37L42.67 10.68C42.08 10.68 39.90 10.91 39.06 10.91L38.23 10.91L38.23 2.51ZM49.60 4.83L48.44 4.83L48.44 10.26L46.70 10.81C46.52 10.86 46.05 10.95 45.89 10.95C45.26 10.95 44.94 10.51 44.94 9.72L44.94 4.83L43.76 4.83L43.76 9.86C43.76 10.84 44.49 11.48 45.57 11.48C45.98 11.48 46.41 11.44 46.98 11.21L48.48 10.63L48.80 11.42L49.60 11.37ZM52.68 3.14L52.68 2.55C52.68 2.41 52.63 2.27 52.28 2.27L51.81 2.27C51.46 2.27 51.41 2.44 51.41 2.55L51.41 3.14C51.41 3.25 51.46 3.43 51.81 3.43L52.28 3.43C52.63 3.43 52.68 3.28 52.68 3.14ZM51.46 11.37L52.63 11.37L52.63 4.83L51.46 4.83ZM54.95 5.53L54.95 9.86C54.95 10.84 55.66 11.48 56.76 11.48C56.97 11.48 57.58 11.38 58.10 11.20L57.92 10.77C57.74 10.82 57.46 10.91 57.30 10.91C56.41 10.91 56.00 10.61 56.00 9.63C56.00 9.39 56.11 8.12 56.11 7.52L56.11 5.53L58.21 5.53L58.21 4.96C57.96 4.96 57.30 5.07 56.11 5.07L56.11 3.32L54.95 3.78L54.95 5.07L53.79 5.07L53.79 5.53ZM60.73 3.14L60.73 2.55C60.73 2.41 60.68 2.27 60.33 2.27L59.86 2.27C59.51 2.27 59.46 2.44 59.46 2.55L59.46 3.14C59.46 3.25 59.51 3.43 59.86 3.43L60.33 3.43C60.68 3.43 60.73 3.28 60.73 3.14ZM58.18 13.13C58.06 13.13 57.81 13.08 57.62 13.02L57.43 13.47C57.95 13.65 58.65 13.71 58.86 13.71C59.95 13.71 60.66 13.06 60.66 12.08L60.66 4.83L59.50 4.83L59.50 9.74C59.50 10.35 59.61 11.68 59.61 11.91C59.61 12.70 59.11 13.13 58.18 13.13ZM63.31 7.41C63.45 5.96 63.99 5.18 65.18 5.18C66.33 5.18 67.02 5.94 67.02 7.38ZM63.27 7.87L68.19 7.95L68.19 7.42C68.19 5.80 67.02 4.72 65.27 4.72C63.34 4.72 62.05 6.06 62.05 8.08C62.05 10.12 63.36 11.48 65.34 11.48C66.46 11.48 67.65 10.96 68.03 10.78L67.79 10.15L66.60 10.70C66.29 10.84 65.79 11.02 65.45 11.02C64.04 11.02 63.27 9.97 63.27 8.04ZM69.64 11.37L70.80 11.37L70.80 5.94L72.52 5.39C72.72 5.33 73.11 5.25 73.35 5.25C73.98 5.25 74.30 5.68 74.30 6.48L74.30 11.37L75.46 11.37L75.46 6.34C75.46 5.36 74.75 4.72 73.67 4.72C73.26 4.72 72.83 4.76 72.25 4.98L70.76 5.57L70.42 4.77L69.64 4.83ZM76.79 10.98C77.39 11.20 78.44 11.48 79.48 11.48C81.72 11.48 82.52 10.61 82.52 9.69C82.52 8.51 81.30 7.97 80.15 7.52C79.06 7.10 78.01 6.75 78.01 6.02C78.01 5.47 78.58 5.18 79.62 5.18C80.25 5.18 80.61 5.26 81.82 5.74L82.05 5.10C81.45 4.87 80.54 4.72 79.60 4.72C78.06 4.72 77.03 5.33 77.03 6.34C77.03 7.43 78.18 7.91 79.30 8.36C80.37 8.78 81.40 9.18 81.40 9.97C81.40 10.63 80.74 11.02 79.49 11.02C78.79 11.02 78.12 10.75 77.03 10.32Z"></path></g><!----><g data-v-423bf9ae="" id="5080acca-b61a-4f27-8c74-6723173fd1bb" transform="matrix(1.9598809480667114,0,0,1.9598809480667114,-8.994545936584473,-52.954071044921875)" stroke="none" fill="white"><path d="M75.195 72.96a2.716 2.716 0 0 1-2.074-4.467L88.73 50 73.122 31.507a2.716 2.716 0 0 1 4.151-3.504L94.36 48.248a2.715 2.715 0 0 1 0 3.503L77.272 71.995a2.708 2.708 0 0 1-2.077.965zM24.805 72.96a2.71 2.71 0 0 1-2.076-.964L5.641 51.752a2.715 2.715 0 0 1 0-3.503l17.088-20.245a2.716 2.716 0 0 1 4.151 3.503L11.269 50.001l15.609 18.492a2.716 2.716 0 0 1-2.073 4.467zM37.325 72.96a2.715 2.715 0 0 1-2.299-4.156L60.37 28.315a2.715 2.715 0 1 1 4.604 2.881L39.63 71.685a2.714 2.714 0 0 1-2.305 1.275z"></path></g><!----><g data-v-423bf9ae="" id="86428472-9cba-4ad0-ab88-cc5eabdd57c1" fill="white" transform="matrix(2.2733190059661865,0,0,2.2733190059661865,195.61643981933594,51.33865737915039)"><path d="M14.50 3.92L13.96 3.92L13.92 3.92L12.45 3.92L12.45 4.19C12.45 4.34 12.53 4.42 12.71 4.44L12.84 4.44C12.89 4.44 12.99 4.45 13.13 4.45C13.27 4.45 13.41 4.47 13.58 4.47L11.20 12.24C11.17 12.33 11.14 12.43 11.13 12.54C11.12 12.66 11.09 12.75 11.06 12.87C11.03 12.75 11.02 12.63 10.99 12.53L10.91 12.24L8.11 4.10C8.08 4.05 8.05 3.99 8.01 3.96C7.97 3.93 7.91 3.92 7.84 3.92L7.64 3.92C7.57 3.92 7.52 3.93 7.48 3.98C7.43 4.02 7.39 4.05 7.38 4.10L4.58 12.25C4.55 12.35 4.52 12.43 4.49 12.54C4.47 12.64 4.45 12.75 4.42 12.88C4.41 12.78 4.38 12.67 4.35 12.54C4.34 12.43 4.31 12.33 4.28 12.24L1.90 4.47C2.07 4.47 2.21 4.45 2.34 4.45C2.46 4.45 2.55 4.44 2.60 4.44L2.72 4.44C2.90 4.42 3.00 4.34 3.00 4.19L3.00 3.92L1.53 3.92L0.94 3.92L0.34 3.92L0.34 4.19C0.34 4.34 0.43 4.42 0.62 4.44L0.71 4.44C0.76 4.44 0.80 4.45 0.87 4.45C0.94 4.45 1.02 4.47 1.11 4.47L4.06 13.82L4.69 13.82L7.63 5.22C7.67 5.11 7.70 5.00 7.73 4.87C7.76 5.00 7.78 5.11 7.83 5.22L10.75 13.82L11.40 13.82L14.34 4.47C14.42 4.47 14.49 4.45 14.56 4.45C14.63 4.45 14.69 4.44 14.73 4.44L14.83 4.44C15.01 4.42 15.09 4.34 15.09 4.19L15.09 3.92ZM24.33 3.92L23.14 3.92L23.14 4.19C23.14 4.34 23.24 4.42 23.42 4.44L23.56 4.44C23.63 4.44 23.73 4.45 23.87 4.45C24.01 4.45 24.16 4.47 24.33 4.47L24.33 13.26C24.16 13.26 24.01 13.27 23.87 13.27C23.73 13.27 23.63 13.29 23.56 13.29L23.42 13.29C23.24 13.30 23.16 13.38 23.16 13.54L23.16 13.82L24.33 13.82L30.27 13.82L30.27 13.22L30.27 11.76L29.92 11.76C29.72 11.76 29.64 11.89 29.62 12.11C29.62 12.14 29.61 12.19 29.61 12.29C29.61 12.39 29.61 12.53 29.60 12.74C29.58 12.95 29.57 13.09 29.57 13.22L25.05 13.22L25.05 9.09L28.99 9.09L28.99 8.51L25.05 8.51L25.05 4.51L29.57 4.51C29.60 5.12 29.62 5.50 29.62 5.63C29.64 5.85 29.72 5.96 29.92 5.96L30.27 5.96L30.27 4.51L30.27 3.92ZM45.96 9.52C45.54 9.11 44.94 8.86 44.16 8.75C44.48 8.67 44.76 8.55 45.01 8.40C45.26 8.25 45.49 8.08 45.65 7.87C45.82 7.66 45.96 7.43 46.05 7.20C46.13 6.96 46.19 6.71 46.19 6.44C46.19 6.05 46.10 5.68 45.98 5.38C45.85 5.07 45.64 4.80 45.37 4.58C45.11 4.37 44.77 4.20 44.35 4.09C43.93 3.98 43.44 3.92 42.88 3.92L40.04 3.92L38.85 3.92L38.85 4.19C38.85 4.34 38.95 4.42 39.13 4.44L39.27 4.44C39.34 4.44 39.44 4.45 39.58 4.45C39.72 4.45 39.87 4.47 40.04 4.47L40.04 13.26C39.87 13.26 39.72 13.27 39.58 13.27C39.44 13.27 39.34 13.29 39.27 13.29L39.13 13.29C38.95 13.30 38.86 13.38 38.86 13.54L38.86 13.82L40.04 13.82L43.25 13.82C43.78 13.82 44.24 13.76 44.66 13.64C45.08 13.51 45.43 13.34 45.71 13.10C45.99 12.87 46.21 12.59 46.37 12.25C46.52 11.91 46.59 11.54 46.59 11.12C46.59 10.46 46.38 9.93 45.96 9.52ZM40.75 4.48L42.88 4.48C43.76 4.48 44.42 4.66 44.84 5.00C45.26 5.35 45.47 5.84 45.47 6.51C45.47 6.76 45.43 7.03 45.33 7.27C45.23 7.50 45.08 7.71 44.87 7.91C44.66 8.11 44.39 8.26 44.07 8.37C43.75 8.48 43.36 8.55 42.90 8.55L40.75 8.55ZM45.21 12.68C44.76 13.06 44.10 13.24 43.23 13.24L40.75 13.24L40.75 9.07L43.25 9.07C43.67 9.07 44.03 9.11 44.35 9.21C44.67 9.31 44.95 9.45 45.18 9.62C45.40 9.80 45.57 10.00 45.70 10.25C45.81 10.50 45.88 10.79 45.88 11.10C45.88 11.79 45.65 12.31 45.21 12.68ZM74.16 6.80C73.93 6.19 73.61 5.68 73.19 5.25C72.77 4.82 72.28 4.48 71.71 4.26C71.13 4.03 70.48 3.92 69.78 3.92L66.35 3.92L65.16 3.92L65.16 4.19C65.16 4.34 65.25 4.42 65.44 4.44L65.58 4.44C65.65 4.44 65.74 4.45 65.88 4.45C66.02 4.45 66.18 4.47 66.35 4.47L66.35 13.26C66.18 13.26 66.02 13.27 65.88 13.27C65.74 13.27 65.65 13.29 65.58 13.29L65.44 13.29C65.25 13.30 65.16 13.38 65.16 13.54L65.16 13.82L66.35 13.82L69.78 13.82C70.48 13.82 71.13 13.71 71.71 13.48C72.28 13.26 72.77 12.92 73.19 12.49C73.61 12.05 73.93 11.54 74.16 10.92C74.38 10.30 74.51 9.63 74.51 8.86C74.51 8.11 74.38 7.42 74.16 6.80ZM73.47 10.72C73.28 11.27 73.02 11.72 72.67 12.10C72.32 12.47 71.90 12.75 71.41 12.95C70.92 13.15 70.38 13.24 69.78 13.24L67.06 13.24L67.06 4.49L69.78 4.49C70.38 4.49 70.92 4.59 71.41 4.79C71.90 4.98 72.32 5.26 72.67 5.64C73.02 6.02 73.28 6.47 73.47 7.01C73.67 7.56 73.77 8.18 73.77 8.86C73.77 9.56 73.67 10.18 73.47 10.72ZM83.99 3.92L82.80 3.92L82.80 4.19C82.80 4.34 82.89 4.42 83.08 4.44L83.22 4.44C83.29 4.44 83.38 4.45 83.52 4.45C83.66 4.45 83.82 4.47 83.99 4.47L83.99 13.26C83.82 13.26 83.66 13.27 83.52 13.27C83.38 13.27 83.29 13.29 83.22 13.29L83.08 13.29C82.89 13.30 82.81 13.38 82.81 13.54L82.81 13.82L83.99 13.82L89.92 13.82L89.92 13.22L89.92 11.76L89.57 11.76C89.38 11.76 89.29 11.89 89.28 12.11C89.28 12.14 89.26 12.19 89.26 12.29C89.26 12.39 89.26 12.53 89.25 12.74C89.24 12.95 89.22 13.09 89.22 13.22L84.70 13.22L84.70 9.09L88.65 9.09L88.65 8.51L84.70 8.51L84.70 4.51L89.22 4.51C89.25 5.12 89.28 5.50 89.28 5.63C89.29 5.85 89.38 5.96 89.57 5.96L89.92 5.96L89.92 4.51L89.92 3.92ZM104.23 9.91C104.09 9.65 103.89 9.39 103.66 9.21C103.42 9.03 103.17 8.88 102.87 8.75C102.58 8.62 102.26 8.51 101.95 8.41C101.64 8.32 101.33 8.20 101.04 8.11C100.74 7.99 100.48 7.87 100.24 7.71C100.00 7.56 99.82 7.38 99.68 7.15C99.54 6.93 99.46 6.65 99.46 6.31C99.46 6.06 99.51 5.82 99.61 5.59C99.71 5.35 99.85 5.15 100.03 4.97C100.21 4.79 100.44 4.65 100.72 4.55C101.00 4.45 101.30 4.40 101.67 4.40C102.34 4.40 102.96 4.51 103.52 4.75C103.56 5.54 103.59 5.99 103.59 6.06C103.60 6.29 103.68 6.41 103.88 6.41L104.22 6.41L104.22 4.38C103.33 4.00 102.49 3.81 101.67 3.81C101.21 3.81 100.80 3.88 100.44 4.02C100.07 4.16 99.78 4.34 99.54 4.58C99.30 4.82 99.11 5.08 98.98 5.39C98.85 5.70 98.80 6.02 98.80 6.36C98.80 6.78 98.87 7.14 99.01 7.42C99.15 7.70 99.34 7.92 99.58 8.12C99.82 8.32 100.07 8.46 100.37 8.58C100.66 8.71 100.98 8.82 101.29 8.92C101.60 9.02 101.89 9.11 102.20 9.21C102.49 9.31 102.76 9.45 103.00 9.60C103.24 9.76 103.42 9.94 103.56 10.16C103.70 10.39 103.77 10.68 103.77 11.03C103.77 11.35 103.71 11.66 103.60 11.94C103.49 12.22 103.33 12.46 103.12 12.67C102.91 12.88 102.65 13.05 102.34 13.16C102.03 13.29 101.68 13.33 101.29 13.33C100.51 13.33 99.85 13.20 99.32 12.95C99.30 12.75 99.30 12.54 99.29 12.32C99.27 12.10 99.27 11.91 99.26 11.76C99.25 11.61 99.25 11.52 99.25 11.51C99.23 11.28 99.13 11.17 98.94 11.17L98.60 11.17L98.60 13.02L98.60 13.20L98.60 13.38C99.46 13.75 100.34 13.93 101.26 13.93C101.77 13.93 102.21 13.85 102.61 13.69C103.00 13.54 103.33 13.31 103.60 13.05C103.87 12.78 104.09 12.46 104.23 12.10C104.37 11.73 104.44 11.34 104.44 10.92C104.44 10.51 104.37 10.18 104.23 9.91ZM115.51 4.44C115.70 4.42 115.78 4.34 115.78 4.19L115.78 3.91L114.60 3.91L113.89 3.91L112.70 3.91L112.70 4.19C112.70 4.34 112.80 4.42 112.98 4.44L113.12 4.44C113.19 4.44 113.29 4.45 113.43 4.45C113.57 4.45 113.72 4.47 113.89 4.47L113.89 13.26C113.72 13.26 113.57 13.27 113.43 13.27C113.29 13.27 113.19 13.29 113.12 13.29L112.98 13.29C112.80 13.30 112.70 13.38 112.70 13.54L112.70 13.82L113.89 13.82L114.60 13.82L115.78 13.82L115.78 13.54C115.78 13.38 115.70 13.30 115.51 13.29L115.37 13.29C115.30 13.29 115.21 13.27 115.07 13.27C114.93 13.27 114.77 13.26 114.60 13.26L114.60 4.47C114.77 4.47 114.93 4.45 115.07 4.45C115.21 4.45 115.30 4.44 115.37 4.44ZM129.77 9.32L129.77 9.72C129.77 9.76 129.79 9.80 129.82 9.83C129.85 9.86 129.89 9.87 129.95 9.87L131.85 9.87L131.85 12.54C131.63 12.67 131.40 12.78 131.19 12.88C130.98 12.98 130.75 13.08 130.51 13.15C130.27 13.22 130.00 13.27 129.72 13.30C129.44 13.33 129.14 13.34 128.80 13.34C128.18 13.34 127.62 13.24 127.12 13.03C126.62 12.82 126.18 12.53 125.82 12.15C125.45 11.77 125.17 11.30 124.98 10.74C124.78 10.18 124.67 9.56 124.67 8.86C124.67 8.18 124.78 7.56 124.98 7.01C125.17 6.47 125.45 5.99 125.82 5.61C126.18 5.24 126.63 4.94 127.15 4.73C127.67 4.52 128.24 4.42 128.88 4.42C130.06 4.42 131.00 4.58 131.68 4.90C131.73 5.81 131.75 6.31 131.75 6.41C131.77 6.64 131.87 6.75 132.06 6.75L132.40 6.75L132.40 4.51C131.96 4.31 131.40 4.14 130.70 4.00C130.00 3.86 129.42 3.81 128.91 3.81C128.16 3.81 127.47 3.92 126.85 4.16C126.24 4.40 125.72 4.75 125.29 5.18C124.85 5.61 124.53 6.15 124.29 6.78C124.05 7.39 123.94 8.09 123.94 8.86C123.94 9.63 124.05 10.32 124.29 10.95C124.53 11.58 124.85 12.10 125.27 12.54C125.69 12.99 126.21 13.33 126.80 13.57C127.39 13.80 128.03 13.93 128.74 13.93C129.16 13.93 129.54 13.90 129.89 13.86C130.24 13.80 130.56 13.73 130.87 13.65C131.18 13.55 131.46 13.44 131.73 13.30C131.99 13.16 132.24 13.01 132.50 12.84L132.50 9.32ZM149.73 3.92L149.10 3.92L147.88 3.92L147.88 4.19C147.88 4.34 147.98 4.42 148.16 4.44L148.30 4.44C148.37 4.44 148.48 4.45 148.62 4.45C148.76 4.45 148.93 4.47 149.10 4.47L149.10 12.22C149.10 12.35 149.10 12.49 149.11 12.63L142.70 4.05C142.66 3.99 142.63 3.95 142.59 3.93C142.55 3.92 142.51 3.91 142.44 3.91L142.09 3.91L140.90 3.91L140.90 4.19C140.90 4.34 140.99 4.42 141.18 4.44L141.32 4.44C141.39 4.44 141.48 4.45 141.62 4.45C141.76 4.45 141.92 4.47 142.09 4.47L142.09 13.26C141.92 13.26 141.76 13.27 141.62 13.27C141.48 13.27 141.39 13.29 141.32 13.29L141.18 13.29C140.99 13.30 140.90 13.38 140.90 13.54L140.90 13.82L142.09 13.82L142.70 13.82L143.92 13.82L143.92 13.54C143.92 13.38 143.82 13.30 143.64 13.29L143.50 13.29C143.43 13.29 143.30 13.27 143.16 13.27C143.02 13.27 142.87 13.26 142.70 13.26L142.70 5.49C142.70 5.36 142.70 5.22 142.69 5.08L149.13 13.68C149.20 13.78 149.27 13.82 149.38 13.82L149.73 13.82L149.73 4.47C149.90 4.47 150.04 4.45 150.18 4.45C150.32 4.45 150.43 4.44 150.50 4.44L150.63 4.44C150.81 4.42 150.91 4.34 150.91 4.19L150.91 3.92Z"></path></g></svg>