<svg data-v-fde0c5aa="" xmlns="http://www.w3.org/2000/svg" viewBox="0 0 300 300" class="font"><!----><defs data-v-fde0c5aa=""><!----></defs><rect data-v-fde0c5aa="" fill="#01252C" x="0" y="0" width="300px" height="300px" class="logo-background-square"></rect><defs data-v-fde0c5aa=""><!----></defs><g data-v-fde0c5aa="" id="7f8458d4-35cd-4bef-b93f-4f9b1d713659" fill="#88DF95" transform="matrix(2.696739673614502,0,0,2.696739673614502,37.465064793161375,128.45305001854976)"><path d="M2.10 2.97L3.92 2.97C5.43 2.97 6.26 3.86 6.26 5.53C6.26 7.35 5.43 8.33 3.92 8.33L2.10 8.33ZM0.94 2.51L0.94 11.37L2.10 11.37L2.10 8.79L4.16 8.79C6.15 8.79 7.46 7.49 7.46 5.53C7.46 3.71 6.15 2.51 4.16 2.51ZM9.65 7.41C9.79 5.96 10.33 5.18 11.52 5.18C12.67 5.18 13.36 5.94 13.36 7.38ZM9.60 7.87L14.53 7.95L14.53 7.42C14.53 5.80 13.36 4.72 11.61 4.72C9.67 4.72 8.39 6.06 8.39 8.08C8.39 10.12 9.70 11.48 11.68 11.48C12.80 11.48 13.99 10.96 14.36 10.78L14.13 10.15L12.94 10.70C12.63 10.84 12.12 11.02 11.79 11.02C10.37 11.02 9.60 9.97 9.60 8.04ZM16.20 5.53L16.20 9.86C16.20 10.84 16.91 11.48 18.00 11.48C18.21 11.48 18.83 11.38 19.35 11.20L19.17 10.77C18.98 10.82 18.70 10.91 18.55 10.91C17.65 10.91 17.25 10.61 17.25 9.63C17.25 9.39 17.36 8.12 17.36 7.52L17.36 5.53L19.46 5.53L19.46 4.96C19.21 4.96 18.55 5.07 17.36 5.07L17.36 3.32L16.20 3.78L16.20 5.07L15.04 5.07L15.04 5.53ZM21.42 7.41C21.56 5.96 22.11 5.18 23.30 5.18C24.44 5.18 25.13 5.94 25.13 7.38ZM21.38 7.87L26.31 7.95L26.31 7.42C26.31 5.80 25.13 4.72 23.38 4.72C21.45 4.72 20.16 6.06 20.16 8.08C20.16 10.12 21.48 11.48 23.45 11.48C24.57 11.48 25.76 10.96 26.14 10.78L25.90 10.15L24.71 10.70C24.40 10.84 23.90 11.02 23.56 11.02C22.15 11.02 21.38 9.97 21.38 8.04ZM31.14 5.88L31.25 4.62C30.42 4.62 30.07 5.04 29.44 5.67L28.91 6.22L28.55 4.77L27.75 4.83L27.75 11.37L28.91 11.37L28.91 6.87L29.51 6.27C29.86 5.92 30.35 5.88 30.80 5.88ZM37.07 2.51L37.07 11.37L42.67 11.37L42.67 10.68C42.08 10.68 39.90 10.91 39.06 10.91L38.23 10.91L38.23 2.51ZM49.60 4.83L48.44 4.83L48.44 10.26L46.70 10.81C46.52 10.86 46.05 10.95 45.89 10.95C45.26 10.95 44.94 10.51 44.94 9.72L44.94 4.83L43.76 4.83L43.76 9.86C43.76 10.84 44.49 11.48 45.57 11.48C45.98 11.48 46.41 11.44 46.98 11.21L48.48 10.63L48.80 11.42L49.60 11.37ZM52.68 3.14L52.68 2.55C52.68 2.41 52.63 2.27 52.28 2.27L51.81 2.27C51.46 2.27 51.41 2.44 51.41 2.55L51.41 3.14C51.41 3.25 51.46 3.43 51.81 3.43L52.28 3.43C52.63 3.43 52.68 3.28 52.68 3.14ZM51.46 11.37L52.63 11.37L52.63 4.83L51.46 4.83ZM54.95 5.53L54.95 9.86C54.95 10.84 55.66 11.48 56.76 11.48C56.97 11.48 57.58 11.38 58.10 11.20L57.92 10.77C57.74 10.82 57.46 10.91 57.30 10.91C56.41 10.91 56.00 10.61 56.00 9.63C56.00 9.39 56.11 8.12 56.11 7.52L56.11 5.53L58.21 5.53L58.21 4.96C57.96 4.96 57.30 5.07 56.11 5.07L56.11 3.32L54.95 3.78L54.95 5.07L53.79 5.07L53.79 5.53ZM60.73 3.14L60.73 2.55C60.73 2.41 60.68 2.27 60.33 2.27L59.86 2.27C59.51 2.27 59.46 2.44 59.46 2.55L59.46 3.14C59.46 3.25 59.51 3.43 59.86 3.43L60.33 3.43C60.68 3.43 60.73 3.28 60.73 3.14ZM58.18 13.13C58.06 13.13 57.81 13.08 57.62 13.02L57.43 13.47C57.95 13.65 58.65 13.71 58.86 13.71C59.95 13.71 60.66 13.06 60.66 12.08L60.66 4.83L59.50 4.83L59.50 9.74C59.50 10.35 59.61 11.68 59.61 11.91C59.61 12.70 59.11 13.13 58.18 13.13ZM63.31 7.41C63.45 5.96 63.99 5.18 65.18 5.18C66.33 5.18 67.02 5.94 67.02 7.38ZM63.27 7.87L68.19 7.95L68.19 7.42C68.19 5.80 67.02 4.72 65.27 4.72C63.34 4.72 62.05 6.06 62.05 8.08C62.05 10.12 63.36 11.48 65.34 11.48C66.46 11.48 67.65 10.96 68.03 10.78L67.79 10.15L66.60 10.70C66.29 10.84 65.79 11.02 65.45 11.02C64.04 11.02 63.27 9.97 63.27 8.04ZM69.64 11.37L70.80 11.37L70.80 5.94L72.52 5.39C72.72 5.33 73.11 5.25 73.35 5.25C73.98 5.25 74.30 5.68 74.30 6.48L74.30 11.37L75.46 11.37L75.46 6.34C75.46 5.36 74.75 4.72 73.67 4.72C73.26 4.72 72.83 4.76 72.25 4.98L70.76 5.57L70.42 4.77L69.64 4.83ZM76.79 10.98C77.39 11.20 78.44 11.48 79.48 11.48C81.72 11.48 82.52 10.61 82.52 9.69C82.52 8.51 81.30 7.97 80.15 7.52C79.06 7.10 78.01 6.75 78.01 6.02C78.01 5.47 78.58 5.18 79.62 5.18C80.25 5.18 80.61 5.26 81.82 5.74L82.05 5.10C81.45 4.87 80.54 4.72 79.60 4.72C78.06 4.72 77.03 5.33 77.03 6.34C77.03 7.43 78.18 7.91 79.30 8.36C80.37 8.78 81.40 9.18 81.40 9.97C81.40 10.63 80.74 11.02 79.49 11.02C78.79 11.02 78.12 10.75 77.03 10.32Z"></path></g><!----><!----></svg>