<svg data-v-423bf9ae="" xmlns="http://www.w3.org/2000/svg" viewBox="0 0 595 90" class="iconLeftSlogan"><!----><!----><!----><g data-v-423bf9ae="" id="8a9a72f9-c91c-4b68-8765-caa670066e19" fill="#152925" transform="matrix(4.408523082733154,0,0,4.408523082733154,189.77655029296875,-14.988977432250977)"><path d="M1.50 4.36L1.50 13.52L2.73 13.52L2.73 9.94C3.21 10.16 4.01 10.39 4.95 10.39C6.84 10.39 8.34 9.06 8.34 7.45C8.34 5.56 6.73 4.36 5.15 4.36ZM4.91 9.23C4.09 9.23 3.23 9.02 2.73 8.82L2.73 5.52L4.81 5.52C5.99 5.52 7.08 6.29 7.08 7.45C7.08 8.48 6.29 9.23 4.91 9.23ZM16.15 9.87C16.15 8.00 15.11 6.55 13.00 6.55C11.07 6.55 9.71 8.20 9.71 10.14C9.71 12.09 11.20 13.73 13.28 13.73C14.34 13.73 15.05 13.26 15.33 12.99L15.33 11.85C14.88 12.18 14.26 12.63 13.28 12.63C11.96 12.63 11.06 11.69 10.90 10.54L16.15 10.54ZM10.92 9.58C11.12 8.50 11.88 7.64 13.00 7.64C13.96 7.64 14.90 8.26 15.04 9.58ZM19.88 6.69L19.88 4.72L19.36 4.72C18.91 6.07 18.33 7.01 17.45 7.41L17.45 7.74L18.76 7.74L18.76 11.80C18.76 12.96 19.36 13.73 20.52 13.73C21.21 13.73 21.56 13.54 21.93 13.25L21.93 12.33C21.66 12.50 21.31 12.66 20.77 12.66C20.17 12.66 19.88 12.32 19.88 11.74L19.88 7.74L21.88 7.74L21.88 6.69ZM29.87 9.87C29.87 8.00 28.83 6.55 26.73 6.55C24.80 6.55 23.43 8.20 23.43 10.14C23.43 12.09 24.92 13.73 27.00 13.73C28.07 13.73 28.78 13.26 29.05 12.99L29.05 11.85C28.60 12.18 27.99 12.63 27.00 12.63C25.69 12.63 24.79 11.69 24.62 10.54L29.87 10.54ZM24.65 9.58C24.84 8.50 25.61 7.64 26.73 7.64C27.69 7.64 28.63 8.26 28.77 9.58ZM34.95 6.55C34.17 6.55 33.36 7.15 32.84 8.05L32.84 6.69L31.72 6.69L31.72 13.52L32.84 13.52L32.84 9.39C33.35 8.48 33.85 7.72 34.78 7.72C35.14 7.72 35.49 7.86 35.78 8.08L35.78 6.74C35.53 6.62 35.26 6.55 34.95 6.55ZM42.89 12.36L42.89 4.36L41.66 4.36L41.66 13.52L47.93 13.52L47.93 12.36ZM55.60 6.69L54.44 6.69L54.44 10.73C54.44 11.92 53.62 12.56 52.71 12.56C51.79 12.56 50.97 11.92 50.97 10.73L50.97 6.69L49.81 6.69L49.81 10.73C49.81 12.54 51.06 13.66 52.71 13.66C54.35 13.66 55.60 12.54 55.60 10.73ZM58.82 5.26C59.34 5.26 59.75 4.81 59.75 4.33C59.75 3.84 59.34 3.40 58.82 3.40C58.28 3.40 57.89 3.84 57.89 4.33C57.89 4.81 58.28 5.26 58.82 5.26ZM59.51 6.69L57.31 6.69L57.31 7.74L58.39 7.74L58.39 13.52L59.51 13.52ZM63.82 6.69L63.82 4.72L63.30 4.72C62.85 6.07 62.28 7.01 61.39 7.41L61.39 7.74L62.70 7.74L62.70 11.80C62.70 12.96 63.30 13.73 64.46 13.73C65.15 13.73 65.50 13.54 65.87 13.25L65.87 12.33C65.60 12.50 65.26 12.66 64.71 12.66C64.11 12.66 63.82 12.32 63.82 11.74L63.82 7.74L65.82 7.74L65.82 6.69ZM68.76 5.26C69.28 5.26 69.69 4.81 69.69 4.33C69.69 3.84 69.28 3.40 68.76 3.40C68.22 3.40 67.83 3.84 67.83 4.33C67.83 4.81 68.22 5.26 68.76 5.26ZM69.48 6.69L67.28 6.69L67.28 7.74L68.36 7.74L68.36 13.66C68.36 14.78 67.83 15.42 66.62 16.00L67.13 17.01C68.56 16.42 69.48 15.34 69.48 13.49ZM77.77 9.87C77.77 8.00 76.73 6.55 74.62 6.55C72.69 6.55 71.33 8.20 71.33 10.14C71.33 12.09 72.82 13.73 74.89 13.73C75.96 13.73 76.67 13.26 76.95 12.99L76.95 11.85C76.49 12.18 75.88 12.63 74.89 12.63C73.58 12.63 72.68 11.69 72.52 10.54L77.77 10.54ZM72.54 9.58C72.73 8.50 73.50 7.64 74.62 7.64C75.58 7.64 76.52 8.26 76.66 9.58ZM82.96 6.55C82.03 6.55 81.16 7.23 80.73 7.77L80.73 6.69L79.61 6.69L79.61 13.52L80.73 13.52L80.73 8.98C81.28 8.27 82.04 7.64 82.77 7.64C83.85 7.64 84.36 8.29 84.36 9.46L84.37 13.52L85.49 13.52L85.49 9.35C85.49 7.46 84.36 6.55 82.96 6.55ZM89.65 6.55C88.18 6.55 87.24 7.41 87.24 8.57C87.24 9.35 87.49 9.98 88.55 10.38L89.56 10.75C90.21 10.98 90.55 11.20 90.55 11.63C90.55 12.21 90.02 12.63 89.15 12.63C88.47 12.63 87.51 12.21 87.13 11.92L87.13 13.13C87.45 13.36 88.43 13.73 89.24 13.73C90.70 13.73 91.75 12.80 91.75 11.63C91.75 10.86 91.31 10.25 90.43 9.94L89.28 9.53C88.65 9.31 88.44 8.91 88.44 8.57C88.44 8.13 88.87 7.64 89.73 7.64C90.41 7.64 91.14 7.98 91.52 8.27L91.52 7.07C91.21 6.84 90.45 6.55 89.65 6.55Z"></path></g><defs data-v-423bf9ae=""><linearGradient data-v-423bf9ae="" gradientTransform="rotate(25)" id="8a4a4cb5-ee93-470b-ba75-fc5f05a423d0" x1="0%" y1="0%" x2="100%" y2="0%"><stop data-v-423bf9ae="" offset="0%" style="stop-color: rgb(4, 24, 4); stop-opacity: 1;"></stop><stop data-v-423bf9ae="" offset="100%" style="stop-opacity: 1;"></stop></linearGradient></defs><g data-v-423bf9ae="" id="2a4d2ab3-7098-455f-9701-9546d4a47fc2" transform="matrix(1.9598809480667114,0,0,1.9598809480667114,-8.994545936584473,-52.954071044921875)" stroke="none" fill="url(#8a4a4cb5-ee93-470b-ba75-fc5f05a423d0)"><path d="M75.195 72.96a2.716 2.716 0 0 1-2.074-4.467L88.73 50 73.122 31.507a2.716 2.716 0 0 1 4.151-3.504L94.36 48.248a2.715 2.715 0 0 1 0 3.503L77.272 71.995a2.708 2.708 0 0 1-2.077.965zM24.805 72.96a2.71 2.71 0 0 1-2.076-.964L5.641 51.752a2.715 2.715 0 0 1 0-3.503l17.088-20.245a2.716 2.716 0 0 1 4.151 3.503L11.269 50.001l15.609 18.492a2.716 2.716 0 0 1-2.073 4.467zM37.325 72.96a2.715 2.715 0 0 1-2.299-4.156L60.37 28.315a2.715 2.715 0 1 1 4.604 2.881L39.63 71.685a2.714 2.714 0 0 1-2.305 1.275z"></path></g><!----><g data-v-423bf9ae="" id="f7d3e9ba-c691-466a-bc77-e15a57549d0f" fill="#152925" transform="matrix(2.668024778366089,0,0,2.668024778366089,196.01583862304688,48.9010124206543)"><path d="M9.56 13.52L12.77 4.36L11.43 4.36L9.19 11.17L6.84 4.38L6.04 4.36L3.62 11.17L1.48 4.36L0.14 4.36L3.21 13.52L3.91 13.52L6.40 6.59L8.86 13.52ZM15.64 5.52L20.69 5.52L20.69 4.36L14.41 4.36L14.41 13.52L20.69 13.52L20.69 12.36L15.64 12.36L15.64 9.41L20.10 9.41L20.10 8.24L15.64 8.24ZM28.49 8.82C29.44 8.46 29.83 7.59 29.83 6.84C29.83 5.35 28.57 4.36 26.95 4.36L23.28 4.36L23.28 13.32C24.14 13.51 25.48 13.66 26.62 13.66C28.83 13.66 30.27 12.47 30.27 10.94C30.27 9.61 29.30 8.98 28.49 8.82ZM24.51 5.52L26.66 5.52C27.81 5.52 28.57 6.00 28.57 6.97C28.57 7.81 27.81 8.39 26.66 8.39L24.51 8.39ZM26.59 12.50C26.09 12.50 25.17 12.46 24.51 12.33L24.51 9.49L26.69 9.49C27.96 9.49 29.01 9.94 29.01 10.94C29.01 11.89 27.96 12.50 26.59 12.50ZM36.79 4.36L36.79 13.32C37.90 13.52 38.90 13.66 40.15 13.66C43.23 13.66 44.98 11.55 44.98 8.85C44.98 5.89 42.53 4.36 39.70 4.36ZM38.02 5.52L39.70 5.52C41.75 5.52 43.72 6.60 43.72 8.85C43.72 10.90 42.37 12.50 40.15 12.50C39.50 12.50 38.71 12.44 38.02 12.36ZM48.40 5.52L53.44 5.52L53.44 4.36L47.17 4.36L47.17 13.52L53.44 13.52L53.44 12.36L48.40 12.36L48.40 9.41L52.86 9.41L52.86 8.24L48.40 8.24ZM59.57 13.52L63.85 4.36L62.37 4.36L59.24 11.44L56.15 4.36L54.67 4.36L58.95 13.52ZM66.72 5.52L71.76 5.52L71.76 4.36L65.49 4.36L65.49 13.52L71.76 13.52L71.76 12.36L66.72 12.36L66.72 9.41L71.18 9.41L71.18 8.24L66.72 8.24ZM75.59 12.36L75.59 4.36L74.36 4.36L74.36 13.52L80.64 13.52L80.64 12.36ZM87.06 4.16C84.30 4.16 82.24 6.32 82.24 8.94C82.24 11.57 84.30 13.73 87.06 13.73C89.82 13.73 91.89 11.57 91.89 8.94C91.89 6.32 89.82 4.16 87.06 4.16ZM87.06 5.36C89.11 5.36 90.63 6.89 90.63 8.94C90.63 10.99 89.11 12.52 87.06 12.52C85.01 12.52 83.49 10.99 83.49 8.94C83.49 6.89 85.01 5.36 87.06 5.36ZM94.08 4.36L94.08 13.52L95.31 13.52L95.31 9.94C95.79 10.16 96.58 10.39 97.52 10.39C99.41 10.39 100.91 9.06 100.91 7.45C100.91 5.56 99.30 4.36 97.73 4.36ZM97.48 9.23C96.66 9.23 95.80 9.02 95.31 8.82L95.31 5.52L97.38 5.52C98.56 5.52 99.65 6.29 99.65 7.45C99.65 8.48 98.86 9.23 97.48 9.23ZM104.33 5.52L109.38 5.52L109.38 4.36L103.10 4.36L103.10 13.52L109.38 13.52L109.38 12.36L104.33 12.36L104.33 9.41L108.79 9.41L108.79 8.24L104.33 8.24ZM117.55 13.52L119.44 13.52L114.97 9.71C115.14 9.72 115.29 9.72 115.42 9.72C117.00 9.72 118.67 8.82 118.67 7.11C118.67 5.22 117.06 4.36 115.49 4.36L111.97 4.36L111.97 13.52L113.20 13.52L113.20 9.67ZM113.20 5.52L115.28 5.52C116.46 5.52 117.41 6.08 117.41 7.11C117.41 8.09 116.62 8.72 115.24 8.72C114.54 8.72 113.80 8.63 113.20 8.46Z"></path></g></svg>