<svg data-v-423bf9ae="" xmlns="http://www.w3.org/2000/svg" viewBox="0 0 595 90" class="iconLeftSlogan"><!----><!----><!----><g data-v-423bf9ae="" id="20ae60df-0c13-4f0c-97a7-a0bb3fa4c994" fill="black" transform="matrix(4.408523082733154,0,0,4.408523082733154,189.77655029296875,-14.988977432250977)"><path d="M1.50 4.36L1.50 13.52L2.73 13.52L2.73 9.94C3.21 10.16 4.01 10.39 4.95 10.39C6.84 10.39 8.34 9.06 8.34 7.45C8.34 5.56 6.73 4.36 5.15 4.36ZM4.91 9.23C4.09 9.23 3.23 9.02 2.73 8.82L2.73 5.52L4.81 5.52C5.99 5.52 7.08 6.29 7.08 7.45C7.08 8.48 6.29 9.23 4.91 9.23ZM16.15 9.87C16.15 8.00 15.11 6.55 13.00 6.55C11.07 6.55 9.71 8.20 9.71 10.14C9.71 12.09 11.20 13.73 13.28 13.73C14.34 13.73 15.05 13.26 15.33 12.99L15.33 11.85C14.88 12.18 14.26 12.63 13.28 12.63C11.96 12.63 11.06 11.69 10.90 10.54L16.15 10.54ZM10.92 9.58C11.12 8.50 11.88 7.64 13.00 7.64C13.96 7.64 14.90 8.26 15.04 9.58ZM19.88 6.69L19.88 4.72L19.36 4.72C18.91 6.07 18.33 7.01 17.45 7.41L17.45 7.74L18.76 7.74L18.76 11.80C18.76 12.96 19.36 13.73 20.52 13.73C21.21 13.73 21.56 13.54 21.93 13.25L21.93 12.33C21.66 12.50 21.31 12.66 20.77 12.66C20.17 12.66 19.88 12.32 19.88 11.74L19.88 7.74L21.88 7.74L21.88 6.69ZM29.87 9.87C29.87 8.00 28.83 6.55 26.73 6.55C24.80 6.55 23.43 8.20 23.43 10.14C23.43 12.09 24.92 13.73 27.00 13.73C28.07 13.73 28.78 13.26 29.05 12.99L29.05 11.85C28.60 12.18 27.99 12.63 27.00 12.63C25.69 12.63 24.79 11.69 24.62 10.54L29.87 10.54ZM24.65 9.58C24.84 8.50 25.61 7.64 26.73 7.64C27.69 7.64 28.63 8.26 28.77 9.58ZM34.95 6.55C34.17 6.55 33.36 7.15 32.84 8.05L32.84 6.69L31.72 6.69L31.72 13.52L32.84 13.52L32.84 9.39C33.35 8.48 33.85 7.72 34.78 7.72C35.14 7.72 35.49 7.86 35.78 8.08L35.78 6.74C35.53 6.62 35.26 6.55 34.95 6.55ZM42.89 12.36L42.89 4.36L41.66 4.36L41.66 13.52L47.93 13.52L47.93 12.36ZM55.60 6.69L54.44 6.69L54.44 10.73C54.44 11.92 53.62 12.56 52.71 12.56C51.79 12.56 50.97 11.92 50.97 10.73L50.97 6.69L49.81 6.69L49.81 10.73C49.81 12.54 51.06 13.66 52.71 13.66C54.35 13.66 55.60 12.54 55.60 10.73ZM58.82 5.26C59.34 5.26 59.75 4.81 59.75 4.33C59.75 3.84 59.34 3.40 58.82 3.40C58.28 3.40 57.89 3.84 57.89 4.33C57.89 4.81 58.28 5.26 58.82 5.26ZM59.51 6.69L57.31 6.69L57.31 7.74L58.39 7.74L58.39 13.52L59.51 13.52ZM63.82 6.69L63.82 4.72L63.30 4.72C62.85 6.07 62.28 7.01 61.39 7.41L61.39 7.74L62.70 7.74L62.70 11.80C62.70 12.96 63.30 13.73 64.46 13.73C65.15 13.73 65.50 13.54 65.87 13.25L65.87 12.33C65.60 12.50 65.26 12.66 64.71 12.66C64.11 12.66 63.82 12.32 63.82 11.74L63.82 7.74L65.82 7.74L65.82 6.69ZM68.76 5.26C69.28 5.26 69.69 4.81 69.69 4.33C69.69 3.84 69.28 3.40 68.76 3.40C68.22 3.40 67.83 3.84 67.83 4.33C67.83 4.81 68.22 5.26 68.76 5.26ZM69.48 6.69L67.28 6.69L67.28 7.74L68.36 7.74L68.36 13.66C68.36 14.78 67.83 15.42 66.62 16.00L67.13 17.01C68.56 16.42 69.48 15.34 69.48 13.49ZM77.77 9.87C77.77 8.00 76.73 6.55 74.62 6.55C72.69 6.55 71.33 8.20 71.33 10.14C71.33 12.09 72.82 13.73 74.89 13.73C75.96 13.73 76.67 13.26 76.95 12.99L76.95 11.85C76.49 12.18 75.88 12.63 74.89 12.63C73.58 12.63 72.68 11.69 72.52 10.54L77.77 10.54ZM72.54 9.58C72.73 8.50 73.50 7.64 74.62 7.64C75.58 7.64 76.52 8.26 76.66 9.58ZM82.96 6.55C82.03 6.55 81.16 7.23 80.73 7.77L80.73 6.69L79.61 6.69L79.61 13.52L80.73 13.52L80.73 8.98C81.28 8.27 82.04 7.64 82.77 7.64C83.85 7.64 84.36 8.29 84.36 9.46L84.37 13.52L85.49 13.52L85.49 9.35C85.49 7.46 84.36 6.55 82.96 6.55ZM89.65 6.55C88.18 6.55 87.24 7.41 87.24 8.57C87.24 9.35 87.49 9.98 88.55 10.38L89.56 10.75C90.21 10.98 90.55 11.20 90.55 11.63C90.55 12.21 90.02 12.63 89.15 12.63C88.47 12.63 87.51 12.21 87.13 11.92L87.13 13.13C87.45 13.36 88.43 13.73 89.24 13.73C90.70 13.73 91.75 12.80 91.75 11.63C91.75 10.86 91.31 10.25 90.43 9.94L89.28 9.53C88.65 9.31 88.44 8.91 88.44 8.57C88.44 8.13 88.87 7.64 89.73 7.64C90.41 7.64 91.14 7.98 91.52 8.27L91.52 7.07C91.21 6.84 90.45 6.55 89.65 6.55Z"></path></g><!----><g data-v-423bf9ae="" id="77735183-75c0-4c0b-b811-b25f6f15addd" transform="matrix(1.9598809480667114,0,0,1.9598809480667114,-8.994545936584473,-52.954071044921875)" stroke="none" fill="black"><path d="M75.195 72.96a2.716 2.716 0 0 1-2.074-4.467L88.73 50 73.122 31.507a2.716 2.716 0 0 1 4.151-3.504L94.36 48.248a2.715 2.715 0 0 1 0 3.503L77.272 71.995a2.708 2.708 0 0 1-2.077.965zM24.805 72.96a2.71 2.71 0 0 1-2.076-.964L5.641 51.752a2.715 2.715 0 0 1 0-3.503l17.088-20.245a2.716 2.716 0 0 1 4.151 3.503L11.269 50.001l15.609 18.492a2.716 2.716 0 0 1-2.073 4.467zM37.325 72.96a2.715 2.715 0 0 1-2.299-4.156L60.37 28.315a2.715 2.715 0 1 1 4.604 2.881L39.63 71.685a2.714 2.714 0 0 1-2.305 1.275z"></path></g><!----><g data-v-423bf9ae="" id="e1da2cd6-879c-4eee-91d2-f57d0288cd1d" fill="black" transform="matrix(2.3587915897369385,0,0,2.3587915897369385,195.6581268310547,46.53130340576172)"><path d="M1.15 6.34L0.31 6.15L0.36 5.89L3.05 5.89L3.03 6.11L1.90 6.32L3.86 13.18L5.90 6.18L6.21 6.14L8.15 13.18L10.36 6.36L9.08 6.13L9.12 5.89L11.74 5.89L11.72 6.14L10.91 6.34L8.22 14.49L7.77 14.57L5.94 7.63L3.92 14.49L3.44 14.57L1.15 6.34ZM20.66 6.36L19.43 6.18L19.48 5.89L25.68 5.89L25.46 8.07L25.15 8.03L25.02 6.24L21.37 6.24L21.37 9.89L23.66 9.89L23.91 8.94L24.28 8.89L24.06 11.55L23.71 11.61L23.60 10.26L21.37 10.26L21.37 14.03L25.21 14.03L25.72 12.19L26.00 12.26L25.79 14.40L19.46 14.40L19.50 14.11L20.66 13.90L20.66 6.36ZM35.60 6.15L35.60 9.75L37.72 9.75L37.72 9.75Q38.18 9.45 38.51 9.01L38.51 9.01L38.51 9.01Q38.85 8.57 38.85 8.02L38.85 8.02L38.85 8.02Q38.85 7.08 38.21 6.59L38.21 6.59L38.21 6.59Q37.57 6.11 36.44 6.11L36.44 6.11L36.44 6.11Q35.79 6.11 35.60 6.15L35.60 6.15ZM35.60 10.08L35.60 14.03L37.28 14.03L37.28 14.03Q37.92 14.03 38.38 13.85L38.38 13.85L38.38 13.85Q38.83 13.68 39.08 13.38L39.08 13.38L39.08 13.38Q39.32 13.08 39.43 12.74L39.43 12.74L39.43 12.74Q39.54 12.41 39.54 12.02L39.54 12.02L39.54 12.02Q39.54 11.68 39.43 11.36L39.43 11.36L39.43 11.36Q39.32 11.04 39.08 10.74L39.08 10.74L39.08 10.74Q38.84 10.45 38.40 10.26L38.40 10.26L38.40 10.26Q37.95 10.08 37.35 10.08L37.35 10.08L35.60 10.08ZM36.61 14.40L33.70 14.40L33.76 14.11L34.91 13.90L34.91 6.51L33.74 6.36L33.80 6.12L33.80 6.12Q33.93 6.10 34.36 6.03L34.36 6.03L34.36 6.03Q34.80 5.96 34.98 5.94L34.98 5.94L34.98 5.94Q35.15 5.91 35.51 5.87L35.51 5.87L35.51 5.87Q35.86 5.83 36.17 5.82L36.17 5.82L36.17 5.82Q36.48 5.80 36.83 5.80L36.83 5.80L36.83 5.80Q38.12 5.80 38.83 6.38L38.83 6.38L38.83 6.38Q39.55 6.96 39.55 7.79L39.55 7.79L39.55 7.79Q39.55 8.98 38.13 9.76L38.13 9.76L38.13 9.80L38.13 9.80Q39.12 9.86 39.69 10.46L39.69 10.46L39.69 10.46Q40.26 11.05 40.26 11.80L40.26 11.80L40.26 11.80Q40.26 12.22 40.16 12.58L40.16 12.58L40.16 12.58Q40.06 12.95 39.80 13.29L39.80 13.29L39.80 13.29Q39.53 13.63 39.13 13.87L39.13 13.87L39.13 13.87Q38.73 14.11 38.08 14.25L38.08 14.25L38.08 14.25Q37.43 14.40 36.61 14.40L36.61 14.40ZM59.78 6.19L59.78 14.03L61.01 14.03L61.01 14.03Q62.82 14.03 63.91 12.95L63.91 12.95L63.91 12.95Q65.01 11.87 65.01 10.12L65.01 10.12L65.01 10.12Q65.01 8.20 63.96 7.18L63.96 7.18L63.96 7.18Q62.90 6.16 60.97 6.16L60.97 6.16L60.97 6.16Q59.97 6.16 59.78 6.19L59.78 6.19ZM60.83 14.40L57.88 14.40L57.93 14.11L59.09 13.90L59.09 6.51L57.91 6.36L57.98 6.12L57.98 6.12Q60.07 5.79 61.22 5.79L61.22 5.79L61.22 5.79Q62.19 5.79 62.96 6.03L62.96 6.03L62.96 6.03Q63.74 6.26 64.25 6.66L64.25 6.66L64.25 6.66Q64.76 7.05 65.11 7.59L65.11 7.59L65.11 7.59Q65.45 8.13 65.60 8.71L65.60 8.71L65.60 8.71Q65.75 9.29 65.75 9.92L65.75 9.92L65.75 9.92Q65.75 10.64 65.58 11.28L65.58 11.28L65.58 11.28Q65.41 11.93 65.02 12.50L65.02 12.50L65.02 12.50Q64.64 13.08 64.08 13.49L64.08 13.49L64.08 13.49Q63.51 13.91 62.68 14.15L62.68 14.15L62.68 14.15Q61.85 14.40 60.83 14.40L60.83 14.40ZM74.69 6.36L73.47 6.18L73.51 5.89L79.71 5.89L79.50 8.07L79.18 8.03L79.05 6.24L75.40 6.24L75.40 9.89L77.69 9.89L77.94 8.94L78.31 8.89L78.09 11.55L77.74 11.61L77.63 10.26L75.40 10.26L75.40 14.03L79.24 14.03L79.75 12.19L80.03 12.26L79.82 14.40L73.49 14.40L73.53 14.11L74.69 13.90L74.69 6.36ZM87.75 13.60L87.75 13.60L87.95 11.66L88.28 11.71L88.47 13.21L88.47 13.21Q88.70 13.64 89.23 13.89L89.23 13.89L89.23 13.89Q89.76 14.14 90.36 14.14L90.36 14.14L90.36 14.14Q91.04 14.14 91.52 13.74L91.52 13.74L91.52 13.74Q92.00 13.33 92.00 12.61L92.00 12.61L92.00 12.61Q92.00 12.20 91.78 11.83L91.78 11.83L91.78 11.83Q91.57 11.46 91.22 11.18L91.22 11.18L91.22 11.18Q90.88 10.90 90.46 10.63L90.46 10.63L90.46 10.63Q90.04 10.36 89.62 10.07L89.62 10.07L89.62 10.07Q89.20 9.79 88.86 9.48L88.86 9.48L88.86 9.48Q88.51 9.17 88.30 8.75L88.30 8.75L88.30 8.75Q88.08 8.33 88.08 7.84L88.08 7.84L88.08 7.84Q88.08 6.88 88.77 6.29L88.77 6.29L88.77 6.29Q89.47 5.71 90.35 5.71L90.35 5.71L90.35 5.71Q90.94 5.71 91.48 5.90L91.48 5.90L91.48 5.90Q92.02 6.09 92.35 6.46L92.35 6.46L92.12 8.58L91.81 8.53L91.62 6.87L91.62 6.87Q91.44 6.54 91.02 6.32L91.02 6.32L91.02 6.32Q90.60 6.10 90.17 6.10L90.17 6.10L90.17 6.10Q89.58 6.10 89.16 6.48L89.16 6.48L89.16 6.48Q88.75 6.87 88.75 7.52L88.75 7.52L88.75 7.52Q88.75 7.96 88.97 8.35L88.97 8.35L88.97 8.35Q89.20 8.74 89.55 9.03L89.55 9.03L89.55 9.03Q89.90 9.32 90.32 9.61L90.32 9.61L90.32 9.61Q90.75 9.89 91.17 10.17L91.17 10.17L91.17 10.17Q91.60 10.45 91.95 10.75L91.95 10.75L91.95 10.75Q92.31 11.05 92.53 11.45L92.53 11.45L92.53 11.45Q92.75 11.85 92.75 12.29L92.75 12.29L92.75 12.29Q92.75 13.28 92.00 13.93L92.00 13.93L92.00 13.93Q91.25 14.57 90.00 14.57L90.00 14.57L90.00 14.57Q89.29 14.57 88.69 14.30L88.69 14.30L88.69 14.30Q88.09 14.03 87.75 13.60ZM101.63 6.33L100.45 6.16L100.49 5.89L103.61 5.89L103.56 6.16L102.37 6.32L102.37 13.95L103.69 14.08L103.63 14.40L100.52 14.40L100.55 14.11L101.63 13.90L101.63 6.33ZM111.43 10.27L111.43 10.27L111.43 10.27Q111.43 9.64 111.60 9.00L111.60 9.00L111.60 9.00Q111.77 8.36 112.12 7.78L112.12 7.78L112.12 7.78Q112.46 7.21 112.94 6.75L112.94 6.75L112.94 6.75Q113.42 6.30 114.09 6.04L114.09 6.04L114.09 6.04Q114.75 5.77 115.51 5.77L115.51 5.77L115.51 5.77Q116.25 5.77 116.96 5.94L116.96 5.94L116.96 5.94Q117.66 6.11 118.13 6.47L118.13 6.47L117.93 8.64L117.62 8.61L117.41 6.99L117.41 6.99Q117.14 6.65 116.59 6.41L116.59 6.41L116.59 6.41Q116.05 6.17 115.29 6.17L115.29 6.17L115.29 6.17Q113.88 6.17 113.04 7.27L113.04 7.27L113.04 7.27Q112.21 8.37 112.21 10.07L112.21 10.07L112.21 10.07Q112.21 10.69 112.31 11.25L112.31 11.25L112.31 11.25Q112.42 11.81 112.68 12.34L112.68 12.34L112.68 12.34Q112.93 12.87 113.31 13.25L113.31 13.25L113.31 13.25Q113.69 13.63 114.28 13.86L114.28 13.86L114.28 13.86Q114.86 14.09 115.60 14.09L115.60 14.09L115.60 14.09Q116.66 14.09 117.37 13.59L117.37 13.59L117.39 11.03L115.74 10.86L115.78 10.60L119.06 10.60L119.01 10.86L118.10 11.01L118.10 13.86L118.10 13.86Q117.45 14.25 116.71 14.39L116.71 14.39L116.71 14.39Q115.97 14.53 114.88 14.53L114.88 14.53L114.88 14.53Q114.18 14.53 113.55 14.23L113.55 14.23L113.55 14.23Q112.92 13.93 112.45 13.39L112.45 13.39L112.45 13.39Q111.98 12.85 111.70 12.04L111.70 12.04L111.70 12.04Q111.43 11.23 111.43 10.27ZM127.98 6.36L126.71 6.14L126.77 5.89L128.84 5.89L133.56 13.17L133.56 6.33L132.31 6.16L132.35 5.89L135.25 5.89L135.19 6.16L134.06 6.32L134.06 14.44L133.69 14.52L128.48 6.65L128.48 13.95L129.74 14.08L129.67 14.40L126.79 14.40L126.83 14.11L127.98 13.90L127.98 6.36Z"></path></g></svg>